<?xml version="1.0" encoding="UTF-8"?>
<svg xmlns="http://www.w3.org/2000/svg" xmlns:xlink="http://www.w3.org/1999/xlink" width="502.24pt" height="640.81pt" viewBox="0 0 502.24 640.81" version="1.1">
<defs>
<clipPath id="clip1">
  <path d="M 83 620 L 94 620 L 94 640.808594 L 83 640.808594 Z M 83 620 "/>
</clipPath>
<clipPath id="clip2">
  <path d="M 114 620 L 126 620 L 126 640.808594 L 114 640.808594 Z M 114 620 "/>
</clipPath>
<clipPath id="clip3">
  <path d="M 148 620 L 156 620 L 156 640.808594 L 148 640.808594 Z M 148 620 "/>
</clipPath>
<clipPath id="clip4">
  <path d="M 178 620 L 186 620 L 186 640.808594 L 178 640.808594 Z M 178 620 "/>
</clipPath>
<clipPath id="clip5">
  <path d="M 208 620 L 212 620 L 212 640.808594 L 208 640.808594 Z M 208 620 "/>
</clipPath>
<clipPath id="clip6">
  <path d="M 236 620 L 246 620 L 246 640.808594 L 236 640.808594 Z M 236 620 "/>
</clipPath>
<clipPath id="clip7">
  <path d="M 269 619 L 280 619 L 280 640.808594 L 269 640.808594 Z M 269 619 "/>
</clipPath>
<clipPath id="clip8">
  <path d="M 302 619 L 311 619 L 311 640.808594 L 302 640.808594 Z M 302 619 "/>
</clipPath>
<clipPath id="clip9">
  <path d="M 333 619 L 343 619 L 343 640.808594 L 333 640.808594 Z M 333 619 "/>
</clipPath>
<clipPath id="clip10">
  <path d="M 364 619 L 376 619 L 376 640.808594 L 364 640.808594 Z M 364 619 "/>
</clipPath>
<clipPath id="clip11">
  <path d="M 399 620 L 408 620 L 408 640.808594 L 399 640.808594 Z M 399 620 "/>
</clipPath>
<clipPath id="clip12">
  <path d="M 430 620 L 438 620 L 438 640.808594 L 430 640.808594 Z M 430 620 "/>
</clipPath>
<clipPath id="clip13">
  <path d="M 256 71 L 502.238281 71 L 502.238281 185 L 256 185 Z M 256 71 "/>
</clipPath>
<clipPath id="clip14">
  <path d="M 256 76 L 502.238281 76 L 502.238281 185 L 256 185 Z M 256 76 "/>
</clipPath>
</defs>
<g id="surface1">
<g clip-path="url(#clip1)" clip-rule="nonzero">
<path style=" stroke:none;fill-rule:evenodd;fill:rgb(13.299561%,11.799622%,12.199402%);fill-opacity:1;" d="M 83.828125 620.21875 L 83.828125 640.539063 L 86.523438 640.539063 L 86.523438 630.054688 L 86.578125 630.054688 L 90.378906 640.539063 L 93.476563 640.539063 L 89.164063 630.054688 L 93.15625 620.21875 L 90.378906 620.21875 L 86.632813 630.054688 L 86.550781 630.054688 L 86.523438 620.21875 "/>
</g>
<g clip-path="url(#clip2)" clip-rule="nonzero">
<path style=" stroke:none;fill-rule:evenodd;fill:rgb(13.299561%,11.799622%,12.199402%);fill-opacity:1;" d="M 121.820313 634.476563 L 118.585938 634.476563 L 120.203125 624.152344 L 120.257813 624.152344 L 121.285156 631.539063 Z M 119.207031 620.21875 L 114.785156 640.539063 L 117.429688 640.539063 L 118.183594 636.578125 L 122.226563 636.578125 L 122.980469 640.539063 L 125.703125 640.539063 L 121.335938 620.21875 "/>
</g>
<g clip-path="url(#clip3)" clip-rule="nonzero">
<path style=" stroke:none;fill-rule:evenodd;fill:rgb(13.299561%,11.799622%,12.199402%);fill-opacity:1;" d="M 148.546875 620.21875 L 148.546875 640.539063 L 155.769531 640.539063 L 155.769531 638.195313 L 151.246094 638.195313 L 151.246094 620.21875 "/>
</g>
<g clip-path="url(#clip4)" clip-rule="nonzero">
<path style=" stroke:none;fill-rule:evenodd;fill:rgb(13.299561%,11.799622%,12.199402%);fill-opacity:1;" d="M 178.554688 620.21875 L 178.554688 640.539063 L 185.800781 640.539063 L 185.800781 638.195313 L 181.246094 638.195313 L 181.246094 631.296875 L 185.316406 631.296875 L 185.316406 628.949219 L 181.246094 628.949219 L 181.246094 622.5625 L 185.800781 622.5625 L 185.800781 620.21875 "/>
</g>
<g clip-path="url(#clip5)" clip-rule="nonzero">
<path style=" stroke:none;fill-rule:evenodd;fill:rgb(13.299561%,11.799622%,12.199402%);fill-opacity:1;" d="M 208.980469 640.539063 L 211.679688 640.539063 L 211.679688 620.21875 L 208.980469 620.21875 Z M 208.980469 640.539063 "/>
</g>
<g clip-path="url(#clip6)" clip-rule="nonzero">
<path style=" stroke:none;fill-rule:evenodd;fill:rgb(13.299561%,11.799622%,12.199402%);fill-opacity:1;" d="M 243.019531 630.730469 C 243.019531 634.179688 243.210938 638.382813 238.765625 638.25 L 238.765625 622.507813 C 243.316406 622.238281 243.019531 627.601563 243.019531 630.730469 M 236.066406 620.21875 L 236.066406 640.539063 L 237.925781 640.539063 C 242.753906 640.539063 245.878906 640.109375 245.878906 630.730469 C 245.878906 620.433594 242.269531 620.21875 239.089844 620.21875 "/>
</g>
<g clip-path="url(#clip7)" clip-rule="nonzero">
<path style=" stroke:none;fill-rule:evenodd;fill:rgb(13.299561%,11.799622%,12.199402%);fill-opacity:1;" d="M 274.460938 622.480469 C 276.589844 622.480469 276.882813 626.066406 276.882813 630.378906 C 276.882813 634.691406 276.589844 638.277344 274.460938 638.277344 C 272.328125 638.277344 272.03125 634.691406 272.03125 630.378906 C 272.03125 626.066406 272.328125 622.480469 274.460938 622.480469 M 274.460938 619.949219 C 269.230469 619.949219 269.175781 626.710938 269.175781 630.378906 C 269.175781 634.042969 269.230469 640.808594 274.460938 640.808594 C 279.6875 640.808594 279.738281 634.042969 279.738281 630.378906 C 279.738281 626.710938 279.6875 619.949219 274.460938 619.949219 "/>
</g>
<g clip-path="url(#clip8)" clip-rule="nonzero">
<path style=" stroke:none;fill-rule:evenodd;fill:rgb(13.299561%,11.799622%,12.199402%);fill-opacity:1;" d="M 309.847656 620.621094 C 308.984375 620.109375 308.015625 619.949219 306.992188 619.949219 C 303.945313 619.949219 302.433594 622.292969 302.433594 625.148438 C 302.433594 630.488281 308.121094 631.296875 308.121094 635.335938 C 308.121094 636.847656 307.421875 638.167969 305.753906 638.167969 C 304.699219 638.167969 303.890625 637.710938 303.082031 637.117188 L 303.082031 639.839844 C 303.917969 640.511719 304.996094 640.808594 306.046875 640.808594 C 309.039063 640.808594 310.820313 638.355469 310.820313 635.5 C 310.820313 632.75 309.765625 631.402344 307.933594 629.542969 L 305.886719 627.304688 C 305.347656 626.605469 305.132813 625.984375 305.132813 625.097656 C 305.132813 623.695313 306.046875 622.480469 307.53125 622.480469 C 308.445313 622.480469 309.121094 622.832031 309.820313 623.34375 "/>
</g>
<g clip-path="url(#clip9)" clip-rule="nonzero">
<path style=" stroke:none;fill-rule:evenodd;fill:rgb(13.299561%,11.799622%,12.199402%);fill-opacity:1;" d="M 342.054688 620.539063 C 341.269531 620.082031 340.621094 619.949219 339.707031 619.949219 C 334.183594 619.949219 333.671875 626.632813 333.671875 630.703125 C 333.671875 634.960938 334.398438 640.808594 339.894531 640.808594 C 340.675781 640.808594 341.378906 640.675781 342.054688 640.242188 L 342.054688 637.871094 C 341.539063 638.140625 341.027344 638.277344 340.4375 638.277344 C 336.742188 638.277344 336.527344 633.207031 336.527344 630.511719 C 336.527344 627.980469 336.554688 622.480469 340.324219 622.480469 C 340.945313 622.480469 341.511719 622.722656 342.054688 622.992188 "/>
</g>
<g clip-path="url(#clip10)" clip-rule="nonzero">
<path style=" stroke:none;fill-rule:evenodd;fill:rgb(13.299561%,11.799622%,12.199402%);fill-opacity:1;" d="M 369.976563 622.480469 C 372.105469 622.480469 372.402344 626.066406 372.402344 630.378906 C 372.402344 634.691406 372.105469 638.277344 369.976563 638.277344 C 367.84375 638.277344 367.546875 634.691406 367.546875 630.378906 C 367.546875 626.066406 367.84375 622.480469 369.976563 622.480469 M 369.976563 619.949219 C 364.746094 619.949219 364.6875 626.710938 364.6875 630.378906 C 364.6875 634.042969 364.746094 640.808594 369.976563 640.808594 C 375.203125 640.808594 375.257813 634.042969 375.257813 630.378906 C 375.257813 626.710938 375.203125 619.949219 369.976563 619.949219 "/>
</g>
<g clip-path="url(#clip11)" clip-rule="nonzero">
<path style=" stroke:none;fill-rule:evenodd;fill:rgb(13.299561%,11.799622%,12.199402%);fill-opacity:1;" d="M 402.15625 622.507813 C 404.203125 622.507813 404.742188 624.042969 404.742188 625.878906 C 404.742188 628.140625 404.097656 629.410156 401.78125 629.246094 L 401.78125 622.507813 Z M 401.78125 640.539063 L 401.78125 631.539063 C 405.980469 631.699219 407.597656 629.785156 407.597656 625.660156 C 407.597656 620.433594 404.636719 620.21875 402.316406 620.21875 L 399.085938 620.21875 L 399.085938 640.539063 "/>
</g>
<g clip-path="url(#clip12)" clip-rule="nonzero">
<path style=" stroke:none;fill-rule:evenodd;fill:rgb(13.299561%,11.799622%,12.199402%);fill-opacity:1;" d="M 430.609375 620.21875 L 430.609375 640.539063 L 437.863281 640.539063 L 437.863281 638.195313 L 433.308594 638.195313 L 433.308594 631.296875 L 437.378906 631.296875 L 437.378906 628.949219 L 433.308594 628.949219 L 433.308594 622.5625 L 437.863281 622.5625 L 437.863281 620.21875 "/>
</g>
<path style=" stroke:none;fill-rule:evenodd;fill:rgb(13.299561%,11.799622%,12.199402%);fill-opacity:1;" d="M 291.246094 408.734375 L 260.378906 529.609375 L 229.242188 409.21875 L 258.804688 389.101563 L 258.804688 393.824219 L 234.007813 410.355469 L 260.242188 524.988281 L 261.214844 387.902344 "/>
<path style=" stroke:none;fill-rule:evenodd;fill:rgb(13.299561%,11.799622%,12.199402%);fill-opacity:1;" d="M 218.585938 410.1875 L 257.339844 530.316406 L 167.722656 421.8125 L 185.988281 398.546875 L 187.5625 402.484375 L 172.605469 420.980469 L 252.496094 522.566406 L 187.582031 397.109375 "/>
<path style=" stroke:none;fill-rule:evenodd;fill:rgb(13.299561%,11.799622%,12.199402%);fill-opacity:1;" d="M 353.734375 421.328125 L 263.328125 529.707031 L 302.386719 410.671875 L 331.222656 397.761719 L 328.464844 402.875 L 305.636719 412.71875 L 267.511719 522.082031 L 333.875 397.109375 C 333.875 397.109375 346.589844 413.457031 353.734375 421.328125 "/>
<path style=" stroke:none;fill-rule:evenodd;fill:rgb(13.299561%,11.799622%,12.199402%);fill-opacity:1;" d="M 253.945313 530.800781 L 108.621094 447.484375 L 117.109375 421.375 L 119.863281 424.523438 L 111.992188 445.382813 L 244.828125 524.195313 L 117.824219 419.390625 L 157.546875 424.234375 "/>
<path style=" stroke:none;fill-rule:evenodd;fill:rgb(13.299561%,11.799622%,12.199402%);fill-opacity:1;" d="M 412.835938 447.484375 C 363.789063 474.128906 267.027344 530.316406 267.027344 530.316406 L 363.425781 424.71875 L 400.886719 419.40625 L 394.984375 423.734375 L 365.464844 427.277344 L 277.199219 521.113281 L 403.148438 419.875 C 407.386719 428.230469 409.808594 439.371094 412.835938 447.484375 "/>
<path style=" stroke:none;fill-rule:evenodd;fill:rgb(13.299561%,11.799622%,12.199402%);fill-opacity:1;" d="M 248.617188 531.285156 L 57.273438 482.363281 L 53.742188 457.582031 L 57.285156 459.15625 L 60.828125 479.625 L 235.054688 526.441406 L 53.882813 455.722656 L 102.324219 451.847656 "/>
<path style=" stroke:none;fill-rule:evenodd;fill:rgb(13.299561%,11.799622%,12.199402%);fill-opacity:1;" d="M 463.46875 455.222656 L 455.890625 457.582031 L 420.46875 454.53125 L 284.464844 525.957031 L 467.089844 456.203125 L 463.214844 482.847656 L 272.355469 531.285156 L 419.386719 451.679688 "/>
<path style=" stroke:none;fill-rule:evenodd;fill:rgb(13.299561%,11.799622%,12.199402%);fill-opacity:1;" d="M 63.085938 552.117188 L 76.175781 543.382813 L 84.835938 543.382813 L 84.835938 551.648438 L 95.070313 543.382813 L 104.746094 543.398438 L 104.746094 593.773438 L 94.574219 593.773438 L 94.28125 549.285156 L 84.835938 556.765625 C 84.835938 556.765625 83.886719 584.128906 84.5625 593.609375 L 74.230469 593.773438 L 74.230469 549.695313 L 63.570313 556.960938 L 63.976563 593.761719 L 53.398438 593.773438 L 53.398438 543.398438 L 63.085938 543.398438 "/>
<path style=" stroke:none;fill-rule:evenodd;fill:rgb(13.299561%,11.799622%,12.199402%);fill-opacity:1;" d="M 281.074219 552.601563 L 277.683594 552.601563 L 277.683594 547.757813 L 266.476563 547.710938 L 266.710938 590.382813 C 270.585938 591.472656 274.777344 590.988281 276.714844 586.992188 L 276.714844 582.632813 L 280.589844 582.632813 C 281.679688 587.476563 278.652344 591.351563 274.777344 593.289063 L 256.863281 593.773438 L 256.734375 548.792969 C 261.699219 540.800781 273.265625 544.464844 281.074219 543.882813 "/>
<path style=" stroke:none;fill-rule:evenodd;fill:rgb(13.299561%,11.799622%,12.199402%);fill-opacity:1;" d="M 129.9375 588.929688 L 141.5625 581.179688 L 141.5625 552.601563 L 150.765625 552.601563 L 150.765625 593.773438 L 141.5625 593.773438 L 141.5625 585.539063 L 128.917969 593.761719 L 120.734375 593.773438 L 120.734375 552.601563 L 129.9375 552.601563 "/>
<path style=" stroke:none;fill-rule:evenodd;fill:rgb(13.299561%,11.799622%,12.199402%);fill-opacity:1;" d="M 177.410156 590.867188 L 188.550781 590.898438 L 188.550781 593.773438 L 167.722656 593.773438 L 167.722656 552.601563 L 177.410156 552.601563 "/>
<path style=" stroke:none;fill-rule:evenodd;fill:rgb(13.299561%,11.799622%,12.199402%);fill-opacity:1;" d="M 220.523438 555.507813 L 209.867188 555.507813 L 209.832031 593.773438 L 200.175781 593.773438 L 200.175781 555.582031 L 188.550781 555.507813 L 188.550781 552.601563 L 220.523438 552.601563 "/>
<path style=" stroke:none;fill-rule:evenodd;fill:rgb(13.299561%,11.799622%,12.199402%);fill-opacity:1;" d="M 230.210938 593.773438 L 239.898438 593.773438 L 239.898438 552.601563 L 230.210938 552.601563 Z M 230.210938 593.773438 "/>
<path style=" stroke:none;fill-rule:evenodd;fill:rgb(13.299561%,11.799622%,12.199402%);fill-opacity:1;" d="M 301.902344 570.523438 L 313.046875 562.773438 L 313.046875 552.601563 L 322.734375 552.601563 L 322.734375 593.773438 L 313.046875 593.773438 L 313.046875 567.617188 L 301.902344 575.367188 L 301.902344 593.773438 L 292.214844 593.773438 L 292.214844 552.601563 L 301.902344 552.601563 "/>
<path style=" stroke:none;fill-rule:evenodd;fill:rgb(13.299561%,11.799622%,12.199402%);fill-opacity:1;" d="M 386.191406 593.773438 L 395.882813 593.773438 L 395.882813 552.601563 L 386.191406 552.601563 Z M 386.191406 593.773438 "/>
<path style=" stroke:none;fill-rule:evenodd;fill:rgb(13.299561%,11.799622%,12.199402%);fill-opacity:1;" d="M 433.664063 560.351563 L 430.273438 560.351563 L 430.273438 555.992188 C 427.972656 555.144531 425.066406 555.628906 422.523438 555.507813 L 422.039063 590.382813 C 423.734375 591.230469 425.914063 590.746094 427.851563 590.867188 C 430.519531 589.414063 430.394531 586.75 430.273438 584.085938 L 433.183594 584.085938 C 433.785156 587.960938 432.816406 592.078125 428.820313 593.289063 L 412.351563 593.289063 C 412.714844 580.695313 411.503906 567.496094 413.320313 555.507813 C 417.921875 550.179688 427.652344 552.039063 433.664063 552.601563 "/>
<path style=" stroke:none;fill-rule:evenodd;fill:rgb(13.299561%,11.799622%,12.199402%);fill-opacity:1;" d="M 466.605469 555.023438 L 455.949219 555.023438 L 455.464844 568.585938 L 464.183594 568.554688 L 464.183594 571.492188 L 455.949219 571.492188 L 455.464844 590.867188 L 466.605469 591.003906 L 466.605469 593.773438 L 445.773438 593.773438 L 445.773438 552.601563 L 466.605469 552.601563 "/>
<path style=" stroke:none;fill-rule:evenodd;fill:rgb(13.299561%,11.799622%,12.199402%);fill-opacity:1;" d="M 369.238281 556.476563 L 369.238281 589.898438 C 363.546875 596.800781 351.800781 592.925781 343.5625 593.289063 C 341.867188 592.925781 339.808594 592.320313 339.203125 590.382813 L 339.203125 556.476563 C 345.257813 549.574219 357.246094 553.449219 365.847656 553.085938 C 367.542969 554.054688 368.269531 554.78125 369.238281 556.476563 M 359.550781 590.867188 L 349.375 590.867188 L 349.375 555.992188 L 359.550781 555.992188 "/>
<path style=" stroke:none;fill-rule:evenodd;fill:rgb(0%,66.699219%,73.699951%);fill-opacity:1;" d="M 235.726563 176.070313 L 5.445313 115.109375 L 0.933594 84.257813 "/>
<path style="fill:none;stroke-width:15.05;stroke-linecap:butt;stroke-linejoin:miter;stroke:rgb(0%,66.699219%,73.699951%);stroke-opacity:1;stroke-miterlimit:3.864;" d="M 2357.265625 4647.396875 L 54.453125 5257.00625 L 9.335938 5565.521875 Z M 2357.265625 4647.396875 " transform="matrix(0.1,0,0,-0.1,0,640.81)"/>
<path style=" stroke:none;fill-rule:evenodd;fill:rgb(0%,43.899536%,58.799744%);fill-opacity:1;" d="M 235.726563 176.070313 L 0.933594 84.257813 L 58.878906 78.988281 "/>
<path style="fill:none;stroke-width:15.05;stroke-linecap:butt;stroke-linejoin:miter;stroke:rgb(0%,43.899536%,58.799744%);stroke-opacity:1;stroke-miterlimit:3.864;" d="M 2357.265625 4647.396875 L 9.335938 5565.521875 L 588.789063 5618.217187 Z M 2357.265625 4647.396875 " transform="matrix(0.1,0,0,-0.1,0,640.81)"/>
<path style=" stroke:none;fill-rule:evenodd;fill:rgb(30.999756%,71.798706%,27.799988%);fill-opacity:1;" d="M 243.253906 174.5625 L 68.660156 72.214844 L 78.445313 39.855469 "/>
<path style="fill:none;stroke-width:15.05;stroke-linecap:butt;stroke-linejoin:miter;stroke:rgb(30.999756%,71.798706%,27.799988%);stroke-opacity:1;stroke-miterlimit:3.864;" d="M 2432.539063 4662.475 L 686.601563 5685.951562 L 784.453125 6009.545312 Z M 2432.539063 4662.475 " transform="matrix(0.1,0,0,-0.1,0,640.81)"/>
<path style=" stroke:none;fill-rule:evenodd;fill:rgb(26.298523%,54.899597%,27.099609%);fill-opacity:1;" d="M 243.253906 174.5625 L 78.445313 39.855469 L 126.605469 44.371094 "/>
<path style="fill:none;stroke-width:15.05;stroke-linecap:butt;stroke-linejoin:miter;stroke:rgb(26.298523%,54.899597%,27.099609%);stroke-opacity:1;stroke-miterlimit:3.864;" d="M 2432.539063 4662.475 L 784.453125 6009.545312 L 1266.054688 5964.389062 Z M 2432.539063 4662.475 " transform="matrix(0.1,0,0,-0.1,0,640.81)"/>
<path style=" stroke:none;fill-rule:evenodd;fill:rgb(99.198914%,72.198486%,19.999695%);fill-opacity:1;" d="M 247.015625 173.8125 L 140.90625 41.359375 L 163.484375 13.515625 "/>
<path style="fill:none;stroke-width:15.05;stroke-linecap:butt;stroke-linejoin:miter;stroke:rgb(99.198914%,72.198486%,19.999695%);stroke-opacity:1;stroke-miterlimit:3.864;" d="M 2470.15625 4669.975 L 1409.0625 5994.50625 L 1634.84375 6272.94375 Z M 2470.15625 4669.975 " transform="matrix(0.1,0,0,-0.1,0,640.81)"/>
<path style=" stroke:none;fill-rule:evenodd;fill:rgb(88.198853%,56.098938%,21.598816%);fill-opacity:1;" d="M 247.015625 173.8125 L 163.484375 13.515625 L 201.109375 27.816406 "/>
<path style="fill:none;stroke-width:15.05;stroke-linecap:butt;stroke-linejoin:miter;stroke:rgb(88.198853%,56.098938%,21.598816%);stroke-opacity:1;stroke-miterlimit:3.864;" d="M 2470.15625 4669.975 L 1634.84375 6272.94375 L 2011.09375 6129.935937 Z M 2470.15625 4669.975 " transform="matrix(0.1,0,0,-0.1,0,640.81)"/>
<path style=" stroke:none;fill-rule:evenodd;fill:rgb(95.298767%,43.499756%,12.5%);fill-opacity:1;" d="M 251.53125 173.8125 L 214.65625 27.816406 L 250.777344 1.476563 "/>
<path style="fill:none;stroke-width:15.05;stroke-linecap:butt;stroke-linejoin:miter;stroke:rgb(95.298767%,43.499756%,12.5%);stroke-opacity:1;stroke-miterlimit:3.864;" d="M 2515.3125 4669.975 L 2146.5625 6129.935937 L 2507.773438 6393.334375 Z M 2515.3125 4669.975 " transform="matrix(0.1,0,0,-0.1,0,640.81)"/>
<path style=" stroke:none;fill-rule:evenodd;fill:rgb(79.998779%,41.598511%,22.399902%);fill-opacity:1;" d="M 251.53125 173.8125 L 288.40625 26.308594 L 250.777344 1.476563 "/>
<path style="fill:none;stroke-width:15.05;stroke-linecap:butt;stroke-linejoin:miter;stroke:rgb(79.998779%,41.598511%,22.399902%);stroke-opacity:1;stroke-miterlimit:3.864;" d="M 2515.3125 4669.975 L 2884.0625 6145.014062 L 2507.773438 6393.334375 Z M 2515.3125 4669.975 " transform="matrix(0.1,0,0,-0.1,0,640.81)"/>
<path style=" stroke:none;fill-rule:evenodd;fill:rgb(92.89856%,10.998535%,13.699341%);fill-opacity:1;" d="M 254.539063 173.058594 L 301.953125 29.320313 L 339.578125 12.011719 "/>
<path style="fill:none;stroke-width:15.05;stroke-linecap:butt;stroke-linejoin:miter;stroke:rgb(92.89856%,10.998535%,13.699341%);stroke-opacity:1;stroke-miterlimit:3.864;" d="M 2545.390625 4677.514062 L 3019.53125 6114.896875 L 3395.78125 6287.982812 Z M 2545.390625 4677.514062 " transform="matrix(0.1,0,0,-0.1,0,640.81)"/>
<path style=" stroke:none;fill-rule:evenodd;fill:rgb(71.798706%,15.699768%,21.199036%);fill-opacity:1;" d="M 254.539063 173.058594 L 339.578125 12.011719 L 364.414063 41.359375 "/>
<path style="fill:none;stroke-width:15.05;stroke-linecap:butt;stroke-linejoin:miter;stroke:rgb(71.798706%,15.699768%,21.199036%);stroke-opacity:1;stroke-miterlimit:3.864;" d="M 2545.390625 4677.514062 L 3395.78125 6287.982812 L 3644.140625 5994.50625 Z M 2545.390625 4677.514062 " transform="matrix(0.1,0,0,-0.1,0,640.81)"/>
<path style=" stroke:none;fill-rule:evenodd;fill:rgb(92.498779%,0%,54.499817%);fill-opacity:1;" d="M 259.058594 174.5625 L 375.703125 45.875 L 424.621094 39.855469 "/>
<path style="fill:none;stroke-width:15.05;stroke-linecap:butt;stroke-linejoin:miter;stroke:rgb(92.498779%,0%,54.499817%);stroke-opacity:1;stroke-miterlimit:3.864;" d="M 2590.585938 4662.475 L 3757.03125 5949.35 L 4246.210938 6009.545312 Z M 2590.585938 4662.475 " transform="matrix(0.1,0,0,-0.1,0,640.81)"/>
<path style=" stroke:none;fill-rule:evenodd;fill:rgb(57.598877%,14.898682%,51.799011%);fill-opacity:1;" d="M 259.058594 174.5625 L 436.660156 72.96875 L 424.621094 39.855469 "/>
<path style="fill:none;stroke-width:15.05;stroke-linecap:butt;stroke-linejoin:miter;stroke:rgb(57.598877%,14.898682%,51.799011%);stroke-opacity:1;stroke-miterlimit:3.864;" d="M 2590.585938 4662.475 L 4366.601563 5678.4125 L 4246.210938 6009.545312 Z M 2590.585938 4662.475 " transform="matrix(0.1,0,0,-0.1,0,640.81)"/>
<path style=" stroke:none;fill-rule:evenodd;fill:rgb(36.898804%,42.399597%,70.199585%);fill-opacity:1;" d="M 265.078125 176.070313 L 444.9375 79.742188 L 501.378906 84.257813 "/>
<g clip-path="url(#clip13)" clip-rule="nonzero">
<path style="fill:none;stroke-width:15.05;stroke-linecap:butt;stroke-linejoin:miter;stroke:rgb(36.898804%,42.399597%,70.199585%);stroke-opacity:1;stroke-miterlimit:3.864;" d="M 2650.78125 4647.396875 L 4449.375 5610.678125 L 5013.789063 5565.521875 Z M 2650.78125 4647.396875 " transform="matrix(0.1,0,0,-0.1,0,640.81)"/>
</g>
<path style=" stroke:none;fill-rule:evenodd;fill:rgb(25.099182%,24.699402%,59.999084%);fill-opacity:1;" d="M 265.078125 176.070313 L 501.378906 84.257813 L 498.367188 117.367188 "/>
<g clip-path="url(#clip14)" clip-rule="nonzero">
<path style="fill:none;stroke-width:15.05;stroke-linecap:butt;stroke-linejoin:miter;stroke:rgb(25.099182%,24.699402%,59.999084%);stroke-opacity:1;stroke-miterlimit:3.864;" d="M 2650.78125 4647.396875 L 5013.789063 5565.521875 L 4983.671875 5234.428125 Z M 2650.78125 4647.396875 " transform="matrix(0.1,0,0,-0.1,0,640.81)"/>
</g>
<path style=" stroke:none;fill-rule:evenodd;fill:rgb(13.299561%,11.799622%,12.199402%);fill-opacity:1;" d="M 44.097656 277.628906 L 44.097656 301.316406 L 47.238281 301.316406 L 47.238281 289.097656 L 47.300781 289.097656 L 51.730469 301.316406 L 55.34375 301.316406 L 50.320313 289.097656 L 54.96875 277.628906 L 51.730469 277.628906 L 47.363281 289.097656 L 47.269531 289.097656 L 47.238281 277.628906 "/>
<path style=" stroke:none;fill-rule:evenodd;fill:rgb(13.299561%,11.799622%,12.199402%);fill-opacity:1;" d="M 88.648438 294.25 L 84.878906 294.25 L 86.765625 282.21875 L 86.828125 282.21875 L 88.019531 290.824219 Z M 85.601563 277.628906 L 80.449219 301.320313 L 83.527344 301.320313 L 84.40625 296.699219 L 89.121094 296.699219 L 90 301.320313 L 93.171875 301.320313 L 88.085938 277.628906 "/>
<path style=" stroke:none;fill-rule:evenodd;fill:rgb(13.299561%,11.799622%,12.199402%);fill-opacity:1;" d="M 120.066406 277.628906 L 120.066406 301.316406 L 128.488281 301.316406 L 128.488281 298.585938 L 123.210938 298.585938 L 123.210938 277.628906 "/>
<path style=" stroke:none;fill-rule:evenodd;fill:rgb(13.299561%,11.799622%,12.199402%);fill-opacity:1;" d="M 155.285156 277.628906 L 155.285156 301.316406 L 163.738281 301.316406 L 163.738281 298.585938 L 158.429688 298.585938 L 158.429688 290.542969 L 163.171875 290.542969 L 163.171875 287.808594 L 158.429688 287.808594 L 158.429688 280.363281 L 163.738281 280.363281 L 163.738281 277.628906 "/>
<path style=" stroke:none;fill-rule:evenodd;fill:rgb(13.299561%,11.799622%,12.199402%);fill-opacity:1;" d="M 191.003906 301.316406 L 194.148438 301.316406 L 194.148438 277.628906 L 191.003906 277.628906 Z M 191.003906 301.316406 "/>
<path style=" stroke:none;fill-rule:evenodd;fill:rgb(13.299561%,11.799622%,12.199402%);fill-opacity:1;" d="M 230.902344 289.882813 C 230.902344 293.902344 231.125 298.804688 225.941406 298.648438 L 225.941406 280.300781 C 231.25 279.984375 230.902344 286.238281 230.902344 289.882813 M 222.800781 277.628906 L 222.800781 301.320313 L 224.964844 301.320313 C 230.589844 301.320313 234.234375 300.816406 234.234375 289.882813 C 234.234375 277.882813 230.023438 277.628906 226.316406 277.628906 "/>
<path style=" stroke:none;fill-rule:evenodd;fill:rgb(13.299561%,11.799622%,12.199402%);fill-opacity:1;" d="M 267.820313 280.269531 C 270.300781 280.269531 270.648438 284.445313 270.648438 289.472656 C 270.648438 294.5 270.300781 298.679688 267.820313 298.679688 C 265.339844 298.679688 264.992188 294.5 264.992188 289.472656 C 264.992188 284.445313 265.339844 280.269531 267.820313 280.269531 M 267.820313 277.316406 C 261.726563 277.316406 261.664063 285.203125 261.664063 289.472656 C 261.664063 293.746094 261.726563 301.632813 267.820313 301.632813 C 273.914063 301.632813 273.980469 293.746094 273.980469 289.472656 C 273.980469 285.203125 273.914063 277.316406 267.820313 277.316406 "/>
<path style=" stroke:none;fill-rule:evenodd;fill:rgb(13.299561%,11.799622%,12.199402%);fill-opacity:1;" d="M 309.351563 278.101563 C 308.347656 277.503906 307.214844 277.316406 306.019531 277.316406 C 302.46875 277.316406 300.710938 280.050781 300.710938 283.378906 C 300.710938 289.601563 307.339844 290.542969 307.339844 295.253906 C 307.339844 297.015625 306.523438 298.554688 304.574219 298.554688 C 303.351563 298.554688 302.40625 298.019531 301.464844 297.328125 L 301.464844 300.503906 C 302.4375 301.289063 303.695313 301.632813 304.921875 301.632813 C 308.410156 301.632813 310.480469 298.773438 310.480469 295.445313 C 310.480469 292.238281 309.253906 290.667969 307.121094 288.5 L 304.730469 285.894531 C 304.105469 285.074219 303.851563 284.351563 303.851563 283.316406 C 303.851563 281.683594 304.921875 280.269531 306.648438 280.269531 C 307.71875 280.269531 308.503906 280.675781 309.320313 281.273438 "/>
<path style=" stroke:none;fill-rule:evenodd;fill:rgb(13.299561%,11.799622%,12.199402%);fill-opacity:1;" d="M 347.140625 278.007813 C 346.226563 277.472656 345.472656 277.316406 344.40625 277.316406 C 337.964844 277.316406 337.367188 285.105469 337.367188 289.851563 C 337.367188 294.816406 338.214844 301.632813 344.625 301.632813 C 345.535156 301.632813 346.355469 301.476563 347.140625 300.972656 L 347.140625 298.210938 C 346.539063 298.523438 345.945313 298.679688 345.253906 298.679688 C 340.949219 298.679688 340.699219 292.773438 340.699219 289.632813 C 340.699219 286.679688 340.730469 280.269531 345.128906 280.269531 C 345.851563 280.269531 346.511719 280.550781 347.140625 280.867188 "/>
<path style=" stroke:none;fill-rule:evenodd;fill:rgb(13.299561%,11.799622%,12.199402%);fill-opacity:1;" d="M 379.941406 280.269531 C 382.421875 280.269531 382.769531 284.445313 382.769531 289.472656 C 382.769531 294.5 382.421875 298.679688 379.941406 298.679688 C 377.460938 298.679688 377.113281 294.5 377.113281 289.472656 C 377.113281 284.445313 377.460938 280.269531 379.941406 280.269531 M 379.941406 277.316406 C 373.84375 277.316406 373.785156 285.203125 373.785156 289.472656 C 373.785156 293.746094 373.84375 301.632813 379.941406 301.632813 C 386.035156 301.632813 386.097656 293.746094 386.097656 289.472656 C 386.097656 285.203125 386.035156 277.316406 379.941406 277.316406 "/>
<path style=" stroke:none;fill-rule:evenodd;fill:rgb(13.299561%,11.799622%,12.199402%);fill-opacity:1;" d="M 417.730469 280.300781 C 420.121094 280.300781 420.746094 282.089844 420.746094 284.226563 C 420.746094 286.867188 419.992188 288.34375 417.289063 288.152344 L 417.289063 280.300781 Z M 417.289063 301.320313 L 417.289063 290.824219 C 422.191406 291.011719 424.078125 288.78125 424.078125 283.976563 C 424.078125 277.882813 420.621094 277.628906 417.921875 277.628906 L 414.148438 277.628906 L 414.148438 301.320313 "/>
<path style=" stroke:none;fill-rule:evenodd;fill:rgb(13.299561%,11.799622%,12.199402%);fill-opacity:1;" d="M 451.15625 277.628906 L 451.15625 301.316406 L 459.609375 301.316406 L 459.609375 298.585938 L 454.300781 298.585938 L 454.300781 290.542969 L 459.042969 290.542969 L 459.042969 287.808594 L 454.300781 287.808594 L 454.300781 280.363281 L 459.609375 280.363281 L 459.609375 277.628906 "/>
<path style=" stroke:none;fill-rule:evenodd;fill:rgb(13.299561%,11.799622%,12.199402%);fill-opacity:1;" d="M 20.015625 197.523438 L 35.378906 187.273438 L 45.542969 187.273438 L 45.542969 196.976563 L 57.554688 187.273438 L 68.914063 187.289063 L 68.914063 246.425781 L 56.976563 246.425781 L 56.632813 194.203125 L 45.542969 202.980469 C 45.542969 202.980469 44.429688 235.101563 45.222656 246.230469 L 33.09375 246.425781 L 33.09375 194.683594 L 20.582031 203.210938 L 21.058594 246.40625 L 8.644531 246.425781 L 8.644531 187.289063 L 20.015625 187.289063 "/>
<path style="fill:none;stroke-width:1.2;stroke-linecap:butt;stroke-linejoin:miter;stroke:rgb(13.299561%,11.799622%,12.199402%);stroke-opacity:1;stroke-miterlimit:3.864;" d="M 200.15625 4432.865625 L 353.789063 4535.365625 L 455.429688 4535.365625 L 455.429688 4438.334375 L 575.546875 4535.365625 L 689.140625 4535.209375 L 689.140625 3943.842187 L 569.765625 3943.842187 L 566.328125 4466.06875 L 455.429688 4378.295312 C 455.429688 4378.295312 444.296875 4057.084375 452.226563 3945.795312 L 330.9375 3943.842187 L 330.9375 4461.264062 L 205.820313 4375.990625 L 210.585938 3944.0375 L 86.445313 3943.842187 L 86.445313 4535.209375 L 200.15625 4535.209375 Z M 200.15625 4432.865625 " transform="matrix(0.1,0,0,-0.1,0,640.81)"/>
<path style=" stroke:none;fill-rule:evenodd;fill:rgb(13.299561%,11.799622%,12.199402%);fill-opacity:1;" d="M 275.890625 198.09375 L 271.910156 198.09375 L 271.910156 192.40625 L 258.753906 192.355469 L 259.03125 242.445313 C 263.578125 243.722656 268.496094 243.15625 270.773438 238.464844 L 270.773438 233.347656 L 275.324219 233.347656 C 276.601563 239.03125 273.046875 243.582031 268.496094 245.855469 L 246.890625 246.425781 L 247.320313 193.625 C 253.148438 184.242188 266.726563 188.542969 275.890625 187.859375 "/>
<path style="fill:none;stroke-width:1.2;stroke-linecap:butt;stroke-linejoin:miter;stroke:rgb(13.299561%,11.799622%,12.199402%);stroke-opacity:1;stroke-miterlimit:3.864;" d="M 2758.90625 4427.1625 L 2719.101563 4427.1625 L 2719.101563 4484.0375 L 2587.539063 4484.545312 L 2590.3125 3983.646875 C 2635.78125 3970.873437 2684.960938 3976.5375 2707.734375 4023.451562 L 2707.734375 4074.623437 L 2753.242188 4074.623437 C 2766.015625 4017.7875 2730.46875 3972.279687 2684.960938 3949.545312 L 2468.90625 3943.842187 L 2473.203125 4471.85 C 2531.484375 4565.678125 2667.265625 4522.670312 2758.90625 4529.50625 Z M 2758.90625 4427.1625 " transform="matrix(0.1,0,0,-0.1,0,640.81)"/>
<path style=" stroke:none;fill-rule:evenodd;fill:rgb(13.299561%,11.799622%,12.199402%);fill-opacity:1;" d="M 98.484375 240.738281 L 112.128906 231.640625 L 112.128906 198.09375 L 122.933594 198.09375 L 122.933594 246.425781 L 112.128906 246.425781 L 112.128906 236.757813 L 97.289063 246.40625 L 87.679688 246.425781 L 87.679688 198.09375 L 98.484375 198.09375 "/>
<path style="fill:none;stroke-width:1.2;stroke-linecap:butt;stroke-linejoin:miter;stroke:rgb(13.299561%,11.799622%,12.199402%);stroke-opacity:1;stroke-miterlimit:3.864;" d="M 984.84375 4000.717187 L 1121.289063 4091.69375 L 1121.289063 4427.1625 L 1229.335938 4427.1625 L 1229.335938 3943.842187 L 1121.289063 3943.842187 L 1121.289063 4040.521875 L 972.890625 3944.0375 L 876.796875 3943.842187 L 876.796875 4427.1625 L 984.84375 4427.1625 Z M 984.84375 4000.717187 " transform="matrix(0.1,0,0,-0.1,0,640.81)"/>
<path style=" stroke:none;fill-rule:evenodd;fill:rgb(13.299561%,11.799622%,12.199402%);fill-opacity:1;" d="M 154.207031 243.011719 L 167.285156 243.050781 L 167.285156 246.425781 L 142.835938 246.425781 L 142.835938 198.09375 L 154.207031 198.09375 "/>
<path style="fill:none;stroke-width:1.2;stroke-linecap:butt;stroke-linejoin:miter;stroke:rgb(13.299561%,11.799622%,12.199402%);stroke-opacity:1;stroke-miterlimit:3.864;" d="M 1542.070313 3977.982812 L 1672.851563 3977.592187 L 1672.851563 3943.842187 L 1428.359375 3943.842187 L 1428.359375 4427.1625 L 1542.070313 4427.1625 Z M 1542.070313 3977.982812 " transform="matrix(0.1,0,0,-0.1,0,640.81)"/>
<path style=" stroke:none;fill-rule:evenodd;fill:rgb(13.299561%,11.799622%,12.199402%);fill-opacity:1;" d="M 204.8125 201.503906 L 192.304688 201.503906 L 192.265625 246.425781 L 180.933594 246.425781 L 180.933594 201.59375 L 167.285156 201.503906 L 167.285156 198.09375 L 204.8125 198.09375 "/>
<path style="fill:none;stroke-width:1.2;stroke-linecap:butt;stroke-linejoin:miter;stroke:rgb(13.299561%,11.799622%,12.199402%);stroke-opacity:1;stroke-miterlimit:3.864;" d="M 2048.125 4393.060937 L 1923.046875 4393.060937 L 1922.65625 3943.842187 L 1809.335938 3943.842187 L 1809.335938 4392.1625 L 1672.851563 4393.060937 L 1672.851563 4427.1625 L 2048.125 4427.1625 Z M 2048.125 4393.060937 " transform="matrix(0.1,0,0,-0.1,0,640.81)"/>
<path style="fill-rule:evenodd;fill:rgb(13.299561%,11.799622%,12.199402%);fill-opacity:1;stroke-width:1.2;stroke-linecap:butt;stroke-linejoin:miter;stroke:rgb(13.299561%,11.799622%,12.199402%);stroke-opacity:1;stroke-miterlimit:3.864;" d="M 2161.875 3943.842187 L 2275.585938 3943.842187 L 2275.585938 4427.1625 L 2161.875 4427.1625 Z M 2161.875 3943.842187 " transform="matrix(0.1,0,0,-0.1,0,640.81)"/>
<path style=" stroke:none;fill-rule:evenodd;fill:rgb(13.299561%,11.799622%,12.199402%);fill-opacity:1;" d="M 300.339844 219.132813 L 313.417969 210.035156 L 313.417969 198.09375 L 324.789063 198.09375 L 324.789063 246.425781 L 313.417969 246.425781 L 313.417969 215.71875 L 300.339844 224.816406 L 300.339844 246.425781 L 288.96875 246.425781 L 288.96875 198.09375 L 300.339844 198.09375 "/>
<path style="fill:none;stroke-width:1.2;stroke-linecap:butt;stroke-linejoin:miter;stroke:rgb(13.299561%,11.799622%,12.199402%);stroke-opacity:1;stroke-miterlimit:3.864;" d="M 3003.398438 4216.771875 L 3134.179688 4307.748437 L 3134.179688 4427.1625 L 3247.890625 4427.1625 L 3247.890625 3943.842187 L 3134.179688 3943.842187 L 3134.179688 4250.9125 L 3003.398438 4159.935937 L 3003.398438 3943.842187 L 2889.6875 3943.842187 L 2889.6875 4427.1625 L 3003.398438 4427.1625 Z M 3003.398438 4216.771875 " transform="matrix(0.1,0,0,-0.1,0,640.81)"/>
<path style=" stroke:none;fill-rule:evenodd;fill:rgb(13.299561%,11.799622%,12.199402%);fill-opacity:1;" d="M 379.378906 202.640625 L 379.378906 241.875 C 372.695313 249.976563 358.90625 245.429688 349.238281 245.855469 C 347.25 245.429688 344.835938 244.71875 344.121094 242.445313 L 344.121094 202.640625 C 351.230469 194.539063 365.304688 199.089844 375.398438 198.660156 C 377.386719 199.800781 378.238281 200.652344 379.378906 202.640625 "/>
<path style="fill:none;stroke-width:1.2;stroke-linecap:butt;stroke-linejoin:miter;stroke:rgb(13.299561%,11.799622%,12.199402%);stroke-opacity:1;stroke-miterlimit:3.864;" d="M 3793.789063 4381.69375 L 3793.789063 3989.35 C 3726.953125 3908.334375 3589.0625 3953.803125 3492.382813 3949.545312 C 3472.5 3953.803125 3448.359375 3960.9125 3441.210938 3983.646875 L 3441.210938 4381.69375 C 3512.304688 4462.709375 3653.046875 4417.201562 3753.984375 4421.498437 C 3773.867188 4410.092187 3782.382813 4401.576562 3793.789063 4381.69375 Z M 3793.789063 4381.69375 " transform="matrix(0.1,0,0,-0.1,0,640.81)"/>
<path style="fill-rule:evenodd;fill:rgb(13.299561%,11.799622%,12.199402%);fill-opacity:1;stroke-width:1.2;stroke-linecap:butt;stroke-linejoin:miter;stroke:rgb(13.299561%,11.799622%,12.199402%);stroke-opacity:1;stroke-miterlimit:3.864;" d="M 3992.8125 3943.842187 L 4106.523438 3943.842187 L 4106.523438 4427.1625 L 3992.8125 4427.1625 Z M 3992.8125 3943.842187 " transform="matrix(0.1,0,0,-0.1,0,640.81)"/>
<path style=" stroke:none;fill-rule:evenodd;fill:rgb(13.299561%,11.799622%,12.199402%);fill-opacity:1;" d="M 455.003906 207.191406 L 451.023438 207.191406 L 451.023438 202.074219 C 448.320313 201.078125 444.910156 201.648438 441.925781 201.503906 L 441.355469 242.445313 C 443.347656 243.4375 445.902344 242.871094 448.179688 243.011719 C 451.308594 241.308594 451.164063 238.179688 451.023438 235.050781 L 454.433594 235.050781 C 455.144531 239.601563 454.007813 244.433594 449.316406 245.855469 L 429.984375 245.855469 C 430.410156 231.070313 428.988281 215.578125 431.121094 201.503906 C 436.523438 195.25 447.941406 197.4375 455.003906 198.09375 "/>
<path style="fill:none;stroke-width:1.2;stroke-linecap:butt;stroke-linejoin:miter;stroke:rgb(13.299561%,11.799622%,12.199402%);stroke-opacity:1;stroke-miterlimit:3.864;" d="M 4550.039063 4336.185937 L 4510.234375 4336.185937 L 4510.234375 4387.357812 C 4483.203125 4397.31875 4449.101563 4391.615625 4419.257813 4393.060937 L 4413.554688 3983.646875 C 4433.476563 3973.725 4459.023438 3979.389062 4481.796875 3977.982812 C 4513.085938 3995.014062 4511.640625 4026.303125 4510.234375 4057.592187 L 4544.335938 4057.592187 C 4551.445313 4012.084375 4540.078125 3963.764062 4493.164063 3949.545312 L 4299.84375 3949.545312 C 4304.101563 4097.396875 4289.882813 4252.31875 4311.210938 4393.060937 C 4365.234375 4455.6 4479.414063 4433.725 4550.039063 4427.1625 Z M 4550.039063 4336.185937 " transform="matrix(0.1,0,0,-0.1,0,640.81)"/>
<path style=" stroke:none;fill-rule:evenodd;fill:rgb(13.299561%,11.799622%,12.199402%);fill-opacity:1;" d="M 493.667969 200.9375 L 481.15625 200.9375 L 480.589844 216.855469 L 490.824219 216.820313 L 490.824219 220.269531 L 481.15625 220.269531 L 480.589844 243.011719 L 493.667969 243.175781 L 493.667969 246.425781 L 469.21875 246.425781 L 469.21875 198.09375 L 493.667969 198.09375 "/>
<path style="fill:none;stroke-width:1.2;stroke-linecap:butt;stroke-linejoin:miter;stroke:rgb(13.299561%,11.799622%,12.199402%);stroke-opacity:1;stroke-miterlimit:3.864;" d="M 4936.679688 4398.725 L 4811.5625 4398.725 L 4805.898438 4239.545312 L 4908.242188 4239.896875 L 4908.242188 4205.404687 L 4811.5625 4205.404687 L 4805.898438 3977.982812 L 4936.679688 3976.342187 L 4936.679688 3943.842187 L 4692.1875 3943.842187 L 4692.1875 4427.1625 L 4936.679688 4427.1625 Z M 4936.679688 4398.725 " transform="matrix(0.1,0,0,-0.1,0,640.81)"/>
<path style="fill-rule:evenodd;fill:rgb(100%,100%,100%);fill-opacity:1;stroke-width:1.2;stroke-linecap:butt;stroke-linejoin:miter;stroke:rgb(100%,100%,100%);stroke-opacity:1;stroke-miterlimit:3.864;" d="M 3560.625 3977.982812 L 3680.039063 3977.982812 L 3680.039063 4387.357812 L 3560.625 4387.357812 Z M 3560.625 3977.982812 " transform="matrix(0.1,0,0,-0.1,0,640.81)"/>
</g>
</svg>
